<svg xmlns="http://www.w3.org/2000/svg" viewBox="0 0 141.73 193.4"><defs><style>.cls-1{fill:#243825;}</style></defs><title>Nakanek_Logo_Green</title><g id="Calque_2" data-name="Calque 2"><g id="Calque_1-2" data-name="Calque 1"><polygon class="cls-1" points="0.33 58.65 5.16 59.58 9.51 58.56 10 58.23 10 57.38 9.76 56.71 9.35 52.73 9.35 30 10.08 17.75 18.36 54.93 20.49 58.82 25.82 59.75 29.43 57.3 29.1 53.75 30.25 7.61 30.25 4.06 26.89 1.61 21.56 1.94 21.56 31.02 19.75 26.03 19.59 25.02 18.93 23.58 18.69 22.56 18.36 21.8 17.62 17.66 17.38 16.99 15.08 6 12.21 1.77 7.71 1.18 1.64 0.85 0.41 5.49 0.41 15.89 0.74 20.11 0 58.31 0.33 58.65"/><path class="cls-1" d="M40.08,59l2.63-4.23L43,49.52l1.31-8,.32-.42h5.09l3.93.42,1.07,5.75.73,7,2.79,4,10.17.67.41-.42L67.71,53l-.49-1.86-1.56-8L56,6,54,1.27l-3-.51H43.53L41.15,3.55l-.82,3L31.64,54l-.49,1.52v1.27l3.52,1.86Zm5.33-31.1.82-5.49.33-5.16,1.15-4.06.74-.42.49.25,2.78,18.85H45.41Z"/><polygon class="cls-1" points="74.51 58.73 79.02 58.73 79.51 58.23 79.27 57.21 78.78 53.58 78.78 37.44 80.91 33.72 91.64 58.99 96.73 58.99 101.64 59.33 101.89 59.07 100.66 54.34 98.28 49.02 96.32 43.52 96.15 42.85 95.5 41.16 95 40.48 94.27 38.2 90.33 29.58 90.42 28.73 92.46 24.34 94.92 20.2 95.66 18.68 97.55 13.94 100.58 3.8 99.02 0.09 93.69 0.09 91.23 3.89 89.76 8.54 87.63 13.86 84.51 18.93 80.5 23.07 79.84 20.2 79.59 3.38 77.05 0.25 71.89 0 71.07 1.27 69.76 57.38 70.41 57.89 74.51 58.73"/><path class="cls-1" d="M113,59l2.62-4.23.33-5.24,1.31-8,.33-.42h5.08l3.94.42,1.06,5.75.74,7,2.79,4,10.16.67.41-.42L140.58,53l-.49-1.86-1.55-8L128.86,6l-2-4.73-3-.51H116.4L114,3.55l-.82,3L104.52,54,104,55.52v1.27l3.52,1.86Zm5.33-31.1.82-5.49.33-5.16,1.14-4.06.74-.42.49.25,2.79,18.85h-6.31Z"/><polygon class="cls-1" points="34.59 105.56 34.59 149.74 32.11 142.16 31.88 140.62 30.98 138.44 30.64 136.9 30.19 135.74 29.17 129.45 28.83 128.42 25.67 111.73 21.71 105.31 15.49 104.41 7.13 103.89 5.44 110.96 5.44 126.75 5.89 133.17 4.87 191.22 5.32 191.73 11.99 193.15 17.98 191.6 18.66 191.09 18.66 189.81 18.32 188.78 17.75 182.74 17.75 148.2 18.77 129.58 30.19 186.08 33.13 191.99 40.47 193.4 45.44 189.68 44.99 184.28 46.57 114.17 46.57 108.77 41.94 105.05 34.59 105.56"/><polygon class="cls-1" points="85.3 177.35 69.48 176.84 68.23 158.99 68.23 153.46 71.62 154.36 78.86 155 79.87 153.98 79.31 147.94 79.87 141.52 78.86 140.37 71.4 140.11 70.61 139.85 67.1 139.59 67.1 125.85 66.88 121.62 74.79 121.62 79.76 121.23 85.41 122 86.2 120.46 85.41 112.63 86.09 108.26 86.09 106.85 84.51 105.95 76.48 105.69 64.84 104.28 57.16 104.28 56.14 104.54 55.8 105.69 56.48 135.61 55.69 166.82 56.59 190.32 57.16 192.5 57.84 193.27 62.81 191.73 83.49 191.73 88.58 190.58 89.25 190.19 88.58 182.49 85.3 177.35"/><polygon class="cls-1" points="134.39 177.09 131.68 168.75 131.45 167.72 130.55 165.15 129.87 164.12 128.86 160.66 123.43 147.56 123.54 146.27 126.37 139.59 129.76 133.3 130.78 130.99 133.38 123.8 137.56 108.39 135.41 102.74 128.06 102.74 124.67 108.52 122.64 115.58 119.7 123.67 115.41 131.38 109.87 137.67 108.97 133.3 108.63 107.75 105.12 103 98 102.61 96.87 104.54 95.07 189.81 95.97 190.58 101.62 191.86 107.83 191.86 108.51 191.09 108.17 189.55 107.5 184.03 107.5 159.5 110.44 153.85 125.24 192.25 132.25 192.25 139.03 192.76 139.37 192.38 137.67 185.18 134.39 177.09"/><polygon class="cls-1" points="7.84 93.55 9.83 92.71 11.89 91.22 12.47 89.22 12.47 86.96 12.06 85.08 11.69 84.05 11.49 83.73 11.38 83.24 9.63 81.79 7.94 80.72 5.74 79.14 6.15 75.84 7.43 76.84 7.63 78.85 7.87 79.07 11.76 78.65 11.89 78.49 11.72 76.65 11.22 74.61 9.73 73 7.7 72.42 5.37 72.42 3.78 72.9 2.7 73.36 1.18 74.94 0.6 76.75 0.6 79.04 1.72 80.85 2.73 81.85 5.37 84.05 7.33 85.99 8.44 87.77 8.44 88.12 8.07 88.86 7.84 89.58 7.57 89.74 5.61 90.06 4.96 89.44 4.25 88.96 4.18 88.57 3.31 87.34 1.14 87.57 0.33 88.86 0.26 89.44 0.37 89.61 0.64 91.25 0.64 91.38 1.31 92.94 1.58 93.23 3.31 93.94 5.57 94.03 7.84 93.55"/><polygon class="cls-1" points="20.51 90.67 20.41 90.77 18.58 91 16.79 89.54 15.1 89.06 13.38 91.06 14.56 92.94 16.45 94.03 18.58 94.42 20.51 94.42 22.67 93.74 24.23 92.03 24.7 90 25 88.06 25.27 84.21 25.27 74.23 25.48 72.74 25.31 72.58 23.69 72.03 21.18 72.13 20.98 72.32 21.22 73.45 21.22 79.3 21.08 81.37 20.75 83.27 18.92 83.76 17.3 82.43 17.03 80.88 16.93 76.65 17.16 73.68 17.16 72.84 15.64 72.13 13.45 71.84 13.18 73.81 12.9 81.66 13.07 83.34 13.75 85.21 15.41 86.8 17.3 87.44 19.39 87.57 21.32 87.02 21.32 89.03 20.51 90.67"/><path class="cls-1" d="M27.5,73.52V89.83l.41,3.91.95.2L29,94l.61.1h2.13l.71-1.26-.34-1.71-.47-5v-2l1.38.29.21.23.57,1.68,2.5,5.43.68,2v.19l.13.33.14.22,1.28-.32h2.1l1.55-.71-1.15-2-.1-.32-4-8.11.61-.29,1.69-1.07L40.48,80l.17-1.65-.2-1.65-.64-2.23-1.25-1.65-1.83-.64L35.21,72h-2.6l-1.89.23H28.48Zm3.89,1.94,3,.09,1.63.81.27,1.78-.75,1.71-1.79.42-2,.19-.37-1.06Z"/><polygon class="cls-1" points="44.1 75.03 43.15 75.26 43.15 88.54 42.92 92.55 43.25 94.03 46.67 94.03 46.8 93.87 46.8 93.03 46.63 91.55 46.5 88.02 47.01 75.42 44.1 75.03"/><polygon class="cls-1" points="45.69 70.83 43.49 70.67 43.35 70.8 42.88 72.61 43.9 74.19 45.92 74.52 47.17 73.45 47.51 71.61 47.31 71.45 45.69 70.83"/><path class="cls-1" d="M57.89,93.68,58,94l1.93.1L61.4,93V79.2l-.33-2.58-1-2.1L58.19,72.9l-2-.42-1.72.13-1.89.62-1.93,1.42-1,1.71v.16l1,1.39,1.79,1,.27-.32.24-.42.68-.88,1.69-.64.23.06.51.58.61.52.23,2.13v1.75l-.1.1h-.4l-2.61.54-2.8,1-.34.19L49.13,85l-.67,1.68v2.42l.54,2,1.72,1.87L52.65,94l1.66.29h2.06ZM54.2,90.51l-.94.2-.51-1-.24-.26-.57-1.61.1-.46L53.26,86l2-.45,2.09-.23v2.2l-.13,1.39-.68,1.55-.23.06Z"/><polygon class="cls-1" points="63.67 72.84 63.67 82.01 63.43 83.31 63.43 91.29 63.67 93.16 64.82 94 66.81 94.16 67.25 93.94 67.45 93.74 67.18 92.58 67.18 78.85 67.59 79.11 71.2 93.78 71.31 93.84 72.89 94.1 73.23 94.19 74.82 93.81 74.96 93.71 75.19 83.69 75.26 83.56 75.36 80.01 75.5 78.98 75.77 73.42 74.62 72.45 72.62 72.26 72.42 76.88 71.71 82.66 69.95 74.49 69.34 72.64 65.42 72.52 63.67 72.84"/><polygon class="cls-1" points="95.74 93.81 95.47 91.8 95.13 83.73 96.58 83.73 98.04 83.82 98.38 80.08 98.21 79.91 96.04 79.62 95.5 78.59 95.47 77.94 95.5 76.72 97.06 76.1 99.66 76.39 99.8 75.23 99.73 73.36 98.95 71.8 95.5 71.93 93.98 72.26 93.64 72.39 92.16 73.19 92.06 73.36 91.38 75.23 91.21 79.62 89.66 79.49 88.34 80.24 87.93 81.89 88.67 83.4 91.45 83.37 91.28 85.54 91.41 94.48 91.51 94.65 94.42 94.65 95.61 93.94 95.74 93.81"/><polygon class="cls-1" points="106.28 89.96 104.76 89.86 104.02 89.96 101.69 90.03 101.21 91.45 101.21 93.42 101.28 93.52 102.8 93.42 106.72 93.42 109.16 93.84 110.71 93.58 110.71 91.8 110.61 90.09 109.6 89.96 106.28 89.96"/><path class="cls-1" d="M100.77,76.33l-.67,4-.14.26V83l.51,2.39,1.12,1.68,2,1.16,1.76.45,2,.1,2-.58,1.72-1.42,1-1.85.48-1.84.64-3.68V77.65l-.61-1.87-1.18-1.88-1.73-1-1.92-.52-1.59-.2h-1l-1.62.46-.57.38-1.42,1.23Zm3.11,3.91.31-2.07.34-1.29L106,75.52l2.06.39,1.52,1.39.3,1.84L109.6,81l-.54,1.84-.82,1.78-1.92.42-1.93-.91-.51-1.52Z"/><polygon class="cls-1" points="120.72 89.96 119.19 89.86 118.45 89.96 116.12 90.03 115.65 91.45 115.65 93.42 115.71 93.52 117.23 93.42 121.16 93.42 123.59 93.84 125.14 93.58 125.14 91.8 125.04 90.09 124.03 89.96 120.72 89.96"/><path class="cls-1" d="M126.5,85l.47-1.84.64-3.68V77.65L127,75.78l-1.18-1.88-1.72-1-1.93-.52-1.59-.2h-1l-1.62.46-.57.38L116,74.29l-.81,2-.68,4-.13.26V83l.5,2.39L116,87.09l2,1.16,1.75.45,2,.1,2-.58,1.73-1.42ZM124,81l-.54,1.84-.81,1.78-1.93.42-1.93-.91-.5-1.52V80.24l.3-2.07.34-1.29,1.42-1.36,2.06.39L124,77.3l.3,1.84Z"/><path class="cls-1" d="M141,78.27l-.68-2.07L138.7,74l-2.1-1.55-1.66-.65-2.6-.58-1.76-.13h-.91l-.74,1.26-.17.46.27,3.81-.47,17.09,1.62.78,2.26-.1,2.37.1,1.93-.46,2.23-1.1,1.52-2.13.61-2.19.33-3.46V82.47l-.13-2.17Zm-3.89,5.62L136.8,88,136,90.16l-2,.51h-1.22v-3l.51-4.26V75.23h.37l1.11.52,1.59,1.87.65,2.1.13,1.39Z"/></g></g></svg>