<svg xmlns="http://www.w3.org/2000/svg" viewBox="0 0 214.1 129.64"><defs><style>.cls-1{fill:#243825;}.cls-2{fill:#fff;}</style></defs><title>Nakanek_Logo_Fond_Green</title><g id="Calque_2" data-name="Calque 2"><g id="Calque_1-2" data-name="Calque 1"><rect class="cls-1" width="214.1" height="129.64"/><path class="cls-2" d="M47.29,69.18l-5-22.5-.44,7.42V67.85l.25,2.4.14.41v.51l-.29.21L39.31,72l-2.93-.56-.2-.21.45-23.1-.2-2.56V39.27l.75-2.81,3.67.2,2.72.36,1.74,2.56,1.39,6.64.15.41.44,2.51.2.46.15.61.4.87.09.61,1.1,3V37.12l3.22-.2,2,1.48v2.15l-.69,27.91.2,2.15L51.8,72.09l-3.22-.56Z"/><path class="cls-2" d="M55,70.56v-.77l.29-.92,5.26-28.73.5-1.79,1.43-1.69h4.57l1.78.31,1.19,2.86L75.9,62.28l.95,4.85.29,1.13.7,3.32-.25.26-6.15-.41L69.75,69l-.44-4.24-.65-3.47-2.38-.26H63.21l-.2.26-.79,4.85L62,69.33l-1.59,2.56-3.27-.21Zm8.63-15.08h3.81l-1.68-11.4-.3-.16-.45.26-.69,2.45-.2,3.12-.49,3.32Z"/><path class="cls-2" d="M91.62,72,85.13,56.73,83.84,59v9.76l.29,2.2.15.62-.29.3H81.26l-2.48-.51-.4-.31.8-33.94.49-.77,3.13.16,1.53,1.89.15,10.17.4,1.74,2.43-2.51,1.88-3.06,1.29-3.22.89-2.82,1.49-2.3h3.23L97,38.63l-1.84,6.14-1.14,2.86-.44.92-1.49,2.51-1.24,2.65,0,.52,2.38,5.21.45,1.38.29.41.4,1,.1.41L95.64,66l1.44,3.22.74,2.87-.15.15-3-.2Z"/><path class="cls-2" d="M99.11,70.56v-.77l.3-.92,5.26-28.73.49-1.79,1.44-1.69h4.56L113,37l1.19,2.86L120,62.28l.94,4.85.3,1.13.69,3.32-.25.26-6.14-.41L113.84,69l-.45-4.24-.64-3.47-2.38-.26h-3.08l-.19.26-.8,4.85-.2,3.17-1.58,2.56-3.28-.21Zm8.63-15.08h3.82l-1.69-11.4-.3-.16-.44.26-.7,2.45-.19,3.12-.5,3.32Z"/><path class="cls-2" d="M134.1,69.3l-4.59-22.68-.4,7.48V68l.22,2.42.14.42v.51l-.27.21-2.41.62-2.67-.57-.18-.21.4-23.29-.18-2.58V39.15l.68-2.84,3.36.21,2.49.36,1.59,2.58,1.27,6.7.14.41.41,2.53.18.46.13.62.37.87.09.62,1,3V37l2.95-.2,1.86,1.49v2.17L140,68.58l.18,2.16-2,1.5-2.95-.57Z"/><path class="cls-2" d="M144.69,71l-.36-9.43L144.65,49l-.27-12,.13-.46.41-.1H148l4.67.56,3.22.11.63.36V38l-.27,1.76.32,3.14-.32.62L154,43.22l-2,.15h-3.18l.09,1.71v5.51l1.41.1.32.11,3,.1.41.46-.23,2.58.23,2.42-.41.42-2.9-.26-1.36-.36v2.21l.5,7.17,6.35.2,1.31,2.07.27,3.09-.27.15-2,.47h-8.3l-2,.62-.27-.31Z"/><path class="cls-2" d="M172.25,72.16,166.3,56.75,165.13,59v9.84l.27,2.22.13.62-.27.31h-2.49l-2.27-.52-.36-.31L160.86,37l.46-.78,2.85.16,1.41,1.91.14,10.25.36,1.76,2.22-2.53L170,44.64l1.18-3.25.82-2.83,1.36-2.32h3l.86,2.26-1.68,6.19-1,2.89-.41.92L172.7,51l-1.13,2.68,0,.51,2.18,5.26.41,1.39.27.42.36,1,.09.41,1.09,3.35,1.32,3.25.68,2.88-.14.16-2.72-.21Z"/><path class="cls-2" d="M65.15,92.6,65,92.42l-.41-.94v-.07l-.17-1-.06-.1,0-.35.49-.78L66.19,89l.53.74,0,.24.43.29.39.37,1.19-.19.16-.1.15-.43.22-.45V89.3l-.67-1.08-1.19-1.17-1.6-1.33-.61-.61L64.56,84V82.63l.34-1.09.92-1,.66-.27,1-.3h1.41l1.23.35.9,1,.3,1.23.11,1.12-.09.09L69,84l-.14-.14-.12-1.21-.78-.61-.25,2L69,85l1,.64,1.06.88.06.29.12.2.23.62.24,1.14v1.37l-.34,1.21-1.25.9-1.21.5-1.37.3L66.19,93Z"/><path class="cls-2" d="M73,92.42l-.72-1.13,1-1.21,1,.29,1.08.88,1.11-.14.06-.06.49-1V88.85l-1.17.33-1.26-.08-1.15-.39-1-1-.41-1.13-.1-1,.16-4.75.17-1.19,1.32.18.92.43v.5l-.14,1.8.06,2.56.17.94,1,.8,1.1-.29L77,85.43,77,84.17V80.64L76.89,80l.12-.11,1.51-.06,1,.33.1.1-.12.9v6l-.16,2.32-.19,1.17-.28,1.24-.94,1-1.31.41H75.43l-1.28-.23Z"/><path class="cls-2" d="M86.56,93v-.12l-.41-1.21L84.63,88.4l-.34-1-.13-.14-.84-.17V88.3l.29,3,.21,1-.43.77H82.1l-.37-.06L81.65,93l-.57-.12-.25-2.36V80.68l.59-.77h1.35l1.15-.13h1.57l.92.06,1.11.39.75,1,.39,1.35.12,1-.1,1-.75,1-1,.65-.37.17L89,91.29l.06.19.69,1.24-.94.43H87.5l-.78.19-.08-.14Zm-3.15-8.13,1.22-.12,1.09-.25.45-1L86,82.4l-1-.49-1.84-.06v2.38Z"/><path class="cls-2" d="M90.13,80.13l.29-1.1L90.5,79l1.33.09,1,.38.12.09-.2,1.12-.76.64-1.22-.19Zm0,12.06.15-2.43v-8l.57-.14,1.76.24-.31,7.62.08,2.13.1.9V93l-.08.1H90.36Z"/><path class="cls-2" d="M94.88,92.42l-1-1.13-.32-1.19V88.63l.4-1,.9-.87.21-.12,1.7-.63,1.57-.33h.25l.06-.06v-1l-.15-1.29-.36-.32-.31-.35-.14,0-1,.39-.41.53-.14.26-.16.19-1.09-.59-.63-.84V82.4l.63-1L96,80.5l1.14-.37,1-.08,1.22.26,1.11,1,.63,1.27.21,1.57v8.36l-.88.65-1.17-.06-.08-.2-.92.37H97l-1-.17ZM98.23,91l.14,0,.41-.94.08-.84V87.81L97.59,88l-1.18.27-.74.82-.06.28.35,1,.14.16.31.62L97,91Z"/><path class="cls-2" d="M107.33,93l-.06,0-2.19-8.87-.25-.16v8.31l.17.7-.13.12-.26.14-1.21-.1-.69-.51-.15-1.13V86.6l.15-.78V80.27l1.06-.2,2.37.08.37,1.11,1.06,4.95.43-3.5.12-2.8,1.21.12.7.59L109.86,84l-.08.62-.06,2.15,0,.08-.15,6.06-.08.06-1,.24-.2-.06Z"/><path class="cls-2" d="M119.41,88l.1-1.31-1.68,0-.45-.92.25-1,.8-.45.94.08.1-2.66.41-1.13.06-.1.9-.49.2-.08.92-.19,2.09-.08.47.94,0,1.13-.08.71-1.58-.18-.94.37,0,.74,0,.39.33.63,1.31.18.1.09-.2,2.27-.88-.06h-.88l.2,4.89.17,1.21L122,93l-.72.43h-1.76l-.06-.1Z"/><path class="cls-2" d="M126.87,89.59l-1.23-.7-.67-1-.31-1.45V85l.08-.16.41-2.42.49-1.23.86-.75.35-.23,1-.28h.57l1,.12,1.16.31,1,.59.72,1.13.37,1.14v1.07l-.39,2.23L132,87.6l-.59,1.11-1,.86-1.21.35-1.21-.06Zm-.49,3.13-.92,0,0,0v-1.2l.29-.86,1.41,0,.45-.05.92.05h2l.61.08.06,1v1.07l-.94.16-1.47-.25Zm2.13-5.11,1.16-.25.49-1.07.33-1.12.14-1.09L130.45,83l-.92-.84-1.25-.23-.86.82-.2.78L127,84.74v1.41l.31.92Z"/><path class="cls-2" d="M135.6,89.59l-1.23-.7-.67-1-.31-1.45V85l.08-.16.41-2.42.49-1.23.86-.75.35-.23,1-.28h.57l1,.12,1.16.31,1,.59L141,82l.37,1.14v1.07L141,86.48l-.29,1.12-.59,1.11-1,.86-1.21.35-1.21-.06Zm-.49,3.13-.92,0,0,0v-1.2l.29-.86,1.41,0,.45-.05.92.05h2l.61.08.06,1v1.07L139,93l-1.47-.25Zm2.13-5.11,1.16-.25.49-1.07.33-1.12.14-1.09L139.18,83l-.92-.84L137,81.89l-.86.82-.2.78-.19,1.25v1.41l.31.92Z"/><path class="cls-2" d="M142,92.89l.28-10.34-.16-2.3.1-.28.45-.76h.56l1.06.08,1.57.35,1,.39,1.27.94,1,1.33.41,1.25.17,1.23.08,1.31v1.62l-.21,2.09-.36,1.33-.92,1.29-1.35.67-1.17.27-1.43-.06-1.37.06Zm2.55-1.84h.74l1.23-.31.47-1.31.2-2.48V85.27l-.08-.84-.39-1.27-1-1.13-.67-.32h-.23v5l-.31,2.58Z"/></g></g></svg>