<svg xmlns="http://www.w3.org/2000/svg" viewBox="0 0 141.73 57.27"><defs><style>.cls-1{fill:#243825;}</style></defs><title>Nakanek_Logo_Green</title><g id="Calque_2" data-name="Calque 2"><g id="Calque_1-2" data-name="Calque 1"><path class="cls-1" d="M11.11,33,6.1,10.5l-.45,7.41V31.66l.25,2.41.15.41V35l-.3.2-2.63.62L.2,35.24,0,35,.45,11.93.25,9.38V3.09L1,.28l3.67.2L7.39.84,9.12,3.39,10.51,10l.15.41.45,2.5.2.46.14.62.4.87.1.61,1.09,3V.94l3.22-.2,2,1.48V4.37l-.7,27.91.2,2.14-2.18,1.49-3.22-.57Z"/><path class="cls-1" d="M18.84,34.37v-.76l.3-.92L24.4,4l.49-1.79L26.33.48h4.56l1.79.31,1.19,2.86,5.85,22.44L40.66,31l.3,1.12.69,3.33-.25.25-6.14-.41-1.69-2.4-.45-4.24-.64-3.48-2.38-.25H27l-.19.25L26,30l-.2,3.17L24.25,35.7,21,35.5Zm8.63-15.08h3.82L29.6,7.89l-.29-.15L28.86,8l-.69,2.45L28,13.57l-.5,3.32Z"/><path class="cls-1" d="M55.44,35.83l-6.5-15.28-1.29,2.24v9.77l.3,2.2.15.61-.3.31H45.07l-2.47-.51-.4-.31L43,.91l.5-.76L46.61.3l1.54,1.89.15,10.18.39,1.73,2.43-2.5L53,8.53,54.3,5.31l.89-2.81L56.68.2H59.9l.94,2.25L59,8.58l-1.14,2.87-.45.92-1.49,2.5-1.24,2.66,0,.51L57,23.26l.44,1.38.3.4.4,1,.09.41,1.19,3.32L60.89,33l.75,2.86-.15.16-3-.21Z"/><path class="cls-1" d="M62.93,34.37v-.76l.29-.92L68.48,4,69,2.17,70.42.48H75l1.78.31L78,3.65,83.8,26.09l1,4.86L85,32.07l.7,3.33-.25.25-6.15-.41-1.69-2.4-.44-4.24-.65-3.48-2.38-.25H71.11l-.2.25L70.12,30l-.2,3.17L68.33,35.7l-3.27-.2Zm8.63-15.08h3.81L73.69,7.89l-.3-.15L72.94,8l-.69,2.45-.2,3.12-.49,3.32Z"/><path class="cls-1" d="M97.91,33.12,93.33,10.44l-.41,7.47V31.78l.23,2.42.13.41v.52l-.27.2-2.4.62-2.68-.57-.18-.2.41-23.3L88,9.3V3L88.66.13,92,.33l2.5.37L96.1,3.27,97.37,10l.13.42.41,2.52.18.47.14.61.36.88.09.62,1,3V.8l2.95-.21,1.86,1.5V4.25l-.64,28.15.18,2.16-2,1.49-3-.56Z"/><path class="cls-1" d="M108.51,34.77l-.36-9.44.31-12.52-.27-12,.14-.47.41-.1h3.08l4.67.57,3.22.1.64.36v.57l-.27,1.75.31,3.15-.31.61L117.81,7l-2,.15h-3.17l.09,1.7v5.52l1.4.1.32.1,3,.11.4.46-.22,2.58.22,2.42-.4.41-2.91-.26L113.18,20v2.22l.5,7.16,6.35.21,1.32,2.06.27,3.09-.27.16-2,.46H111L109,36l-.27-.31Z"/><path class="cls-1" d="M136.06,36l-5.94-15.41-1.18,2.26v9.85l.27,2.21.14.62-.27.31h-2.5l-2.27-.51L124,35,124.68.77l.45-.77L128,.15l1.4,1.91.14,10.26.36,1.75,2.23-2.52,1.72-3.1L135,5.21l.82-2.84L137.2.05h2.94L141,2.32,139.33,8.5l-1,2.89-.41.93-1.36,2.52-1.14,2.68,0,.52,2.17,5.26.41,1.39.27.41.37,1,.09.41,1.09,3.36,1.31,3.24.68,2.89-.13.15-2.73-.2Z"/><path class="cls-1" d="M29,56.41l-.17-.17-.41-.94v-.08l-.16-1-.06-.1,0-.35L28.7,53,30,52.86l.53.74,0,.23.43.3.39.37,1.18-.2.17-.09.14-.43.23-.45v-.22L32.44,52l-1.18-1.18-1.6-1.33-.61-.6-.68-1.1V46.45l.35-1.1.92-1,.65-.27,1-.29h1.41l1.22.35.9,1,.31,1.23.1,1.11-.08.1-2.35.25-.14-.13-.13-1.21-.77-.61-.25,2,1.33,1,1,.65,1.06.88.07.29.12.19.22.63.25,1.13V54L35.2,55.2,34,56.1l-1.2.51-1.37.29L30,56.84Z"/><path class="cls-1" d="M36.82,56.24l-.72-1.13,1-1.22,1,.3,1.08.88,1.1-.14.06-.06.5-1V52.66L39.74,53l-1.27-.07-1.14-.39-1-1-.41-1.14-.11-1L36,44.67l.16-1.19,1.33.17.92.43v.51l-.14,1.8L38.31,49l.16.94,1,.8,1.11-.3.2-1.15L40.84,48V44.45l-.14-.68.12-.12,1.52-.06,1,.34.1.09-.12.9v6l-.17,2.33L43,54.46l-.29,1.23-.94,1-1.31.41H39.25L38,56.9Z"/><path class="cls-1" d="M50.37,56.82v-.11L50,55.5l-1.51-3.29-.35-1L48,51.06l-.84-.18v1.23l.29,3,.2,1L47.2,57H45.91l-.36-.06-.09-.06-.57-.11-.24-2.37V44.49l.59-.76h1.35l1.14-.14h1.58l.92.06,1.1.39.76,1,.39,1.35.12,1-.1,1-.76,1-1,.64-.37.18,2.41,4.91.06.19.7,1.23-.94.43H51.31l-.78.2L50.45,57Zm-3.15-8.13,1.23-.11,1.08-.26.45-1-.16-1.08-1-.49L47,45.66v2.39Z"/><path class="cls-1" d="M54,43.94l.28-1.09.09-.08,1.33.1,1,.37.12.1-.21,1.11-.75.65-1.23-.2ZM54,56l.14-2.42v-8l.57-.14,1.76.24-.3,7.62.08,2.13.1.9v.51l-.08.09H54.17Z"/><path class="cls-1" d="M58.69,56.24l-1-1.13-.33-1.2V52.45l.41-1,.9-.88.2-.12,1.7-.62,1.58-.33h.24l.06-.06V48.36l-.14-1.29-.37-.31-.31-.35-.14,0-1,.39-.41.53-.14.25-.17.2-1.08-.59L58,46.31v-.1l.63-1,1.17-.86,1.14-.38,1-.07,1.23.25,1.1,1L65,46.37l.2,1.56V56.3l-.88.64-1.16-.06L63,56.69l-.92.37H60.86l-1-.18ZM62,54.77l.15,0,.41-.93.08-.84V51.63l-1.27.13L60.22,52l-.73.82-.06.27.34,1,.15.15.3.63.58-.12Z"/><path class="cls-1" d="M71.14,56.79l-.06,0-2.19-8.88-.24-.15V56l.16.71-.12.11-.27.14-1.2-.1-.7-.5-.14-1.14V50.41l.14-.78V44.08l1.06-.19L70,44l.36,1.12L71.39,50l.43-3.5.12-2.79,1.21.12.69.58-.16,3.37-.08.62-.07,2.15,0,.08-.14,6.06-.08.06-1,.23-.21-.06Z"/><path class="cls-1" d="M83.22,51.76l.11-1.31-1.68,0-.45-.92.25-1,.79-.45.94.08.11-2.66.4-1.14.07-.09.9-.49.2-.08.92-.2,2.09-.07.47.93,0,1.14-.09.7-1.57-.17-.94.37,0,.74,0,.39.33.63,1.31.17.1.1-.21,2.27-.88-.06h-.87l.2,4.88.16,1.22-.08.07-.71.43H83.37l-.06-.09Z"/><path class="cls-1" d="M90.69,53.4l-1.23-.7-.68-1-.3-1.44V48.77l.08-.15L89,46.19,89.46,45l.86-.74.35-.24,1-.27h.57l1,.12,1.17.31,1,.59.71,1.13L96.47,47v1.08l-.39,2.23-.28,1.11-.59,1.12-1,.86-1.2.35-1.21-.06Zm-.49,3.13-.92.06,0-.06V55.34l.29-.86,1.41,0,.45-.06.92.06h2l.61.08.06,1v1.08l-.94.16-1.47-.26Zm2.12-5.1,1.17-.25L94,50.1,94.31,49l.14-1.1-.19-1.11-.92-.84L92.1,45.7l-.86.82-.21.79-.18,1.25V50l.31.92Z"/><path class="cls-1" d="M99.42,53.4l-1.23-.7-.68-1-.3-1.44V48.77l.08-.15.41-2.43L98.19,45l.86-.74L99.4,44l1-.27H101l1,.12,1.17.31,1,.59.71,1.13L105.2,47v1.08l-.39,2.23-.28,1.11-.59,1.12-1,.86-1.2.35-1.21-.06Zm-.49,3.13-.92.06L98,56.53V55.34l.29-.86,1.41,0,.45-.06.92.06h2l.61.08.06,1v1.08l-.94.16-1.47-.26Zm2.12-5.1,1.17-.25.49-1.08L103,49l.14-1.1L103,46.78l-.92-.84-1.24-.24-.86.82-.21.79-.18,1.25V50l.31.92Z"/><path class="cls-1" d="M105.77,56.71l.29-10.34-.16-2.31.1-.27.45-.76H107l1.06.07,1.58.36,1,.39,1.27.94,1,1.32.41,1.26.16,1.23.08,1.31v1.62l-.2,2.09L113,55l-.92,1.29-1.35.66-1.16.28-1.43-.06-1.37.06Zm2.56-1.84h.74l1.22-.31.47-1.31.21-2.48V49.09l-.08-.85L110.5,47l-1-1.13-.68-.31h-.22v5l-.31,2.58Z"/></g></g></svg>