<svg xmlns="http://www.w3.org/2000/svg" viewBox="0 0 214.1 265.62"><defs><style>.cls-1{fill:#243825;}.cls-2{fill:#fff;}</style></defs><title>Nakanek_Logo_Fond_Green</title><g id="Calque_2" data-name="Calque 2"><g id="Calque_1-2" data-name="Calque 1"><rect class="cls-1" width="214.1" height="265.62"/><polygon class="cls-2" points="36.51 94.83 41.35 95.76 45.69 94.75 46.19 94.41 46.19 93.57 45.94 92.89 45.53 88.92 45.53 66.19 46.27 53.93 54.55 91.12 56.68 95 62.01 95.93 65.61 93.48 65.28 89.93 66.43 43.79 66.43 40.24 63.07 37.79 57.74 38.13 57.74 67.2 55.94 62.21 55.78 61.2 55.12 59.76 54.88 58.75 54.55 57.99 53.81 53.85 53.56 53.17 51.27 42.19 48.4 37.96 43.89 37.37 37.82 37.03 36.59 41.68 36.59 52.07 36.92 56.3 36.18 94.5 36.51 94.83"/><path class="cls-2" d="M76.27,95.17,78.89,91l.33-5.24,1.31-8,.33-.42h5.08l3.94.42,1.06,5.75.74,7,2.79,4,10.16.68.41-.42-1.15-5.5-.49-1.86-1.56-8-9.67-37.1-2-4.73-3-.5H79.71l-2.38,2.78-.82,3-8.68,47.5-.5,1.52V93l3.53,1.86Zm5.33-31.1.82-5.49.32-5.16,1.15-4.05.74-.42.49.25L87.91,68H81.6Z"/><polygon class="cls-2" points="110.7 94.92 115.2 94.92 115.7 94.41 115.45 93.4 114.96 89.76 114.96 73.62 117.09 69.9 127.83 95.17 132.91 95.17 137.83 95.51 138.07 95.26 136.84 90.52 134.47 85.2 132.5 79.71 132.34 79.03 131.68 77.34 131.19 76.67 130.45 74.38 126.52 65.76 126.6 64.92 128.65 60.52 131.11 56.38 131.84 54.86 133.73 50.13 136.76 39.99 135.21 36.27 129.88 36.27 127.42 40.07 125.94 44.72 123.81 50.04 120.7 55.12 116.68 59.26 116.03 56.38 115.78 39.56 113.24 36.44 108.07 36.18 107.25 37.45 105.94 93.57 106.6 94.07 110.7 94.92"/><path class="cls-2" d="M149.14,95.17,151.77,91l.33-5.24,1.31-8,.32-.42h5.09l3.93.42,1.07,5.75.74,7,2.78,4,10.17.68.41-.42-1.15-5.5-.49-1.86-1.56-8-9.67-37.1-2-4.73-3-.5h-7.54l-2.38,2.78-.82,3-8.69,47.5-.49,1.52V93l3.52,1.86Zm5.33-31.1.82-5.49.33-5.16,1.15-4.05.74-.42.49.25L160.78,68h-6.31Z"/><polygon class="cls-2" points="70.78 141.75 70.78 185.92 68.29 178.35 68.06 176.81 67.16 174.62 66.82 173.08 66.37 171.93 65.35 165.63 65.02 164.61 61.85 147.91 57.9 141.49 51.68 140.59 43.32 140.08 41.62 147.14 41.62 162.94 42.07 169.36 41.06 227.4 41.51 227.92 48.18 229.33 54.16 227.79 54.84 227.28 54.84 225.99 54.51 224.96 53.94 218.93 53.94 184.38 54.96 165.76 66.37 222.27 69.31 228.17 76.66 229.59 81.63 225.86 81.17 220.47 82.76 150.35 82.76 144.96 78.12 141.23 70.78 141.75"/><polygon class="cls-2" points="121.48 213.53 105.66 213.02 104.42 195.17 104.42 189.65 107.81 190.55 115.04 191.19 116.06 190.16 115.49 184.13 116.06 177.71 115.04 176.55 107.58 176.29 106.79 176.04 103.29 175.78 103.29 162.04 103.06 157.8 110.97 157.8 115.94 157.41 121.59 158.19 122.39 156.65 121.59 148.81 122.27 144.44 122.27 143.03 120.69 142.13 112.67 141.88 101.03 140.46 93.34 140.46 92.33 140.72 91.99 141.88 92.66 171.8 91.87 203 92.78 226.5 93.34 228.69 94.02 229.46 98.99 227.92 119.67 227.92 124.76 226.76 125.44 226.38 124.76 218.67 121.48 213.53"/><polygon class="cls-2" points="170.58 213.28 167.87 204.93 167.64 203.9 166.74 201.34 166.06 200.31 165.04 196.84 159.62 183.74 159.73 182.46 162.55 175.78 165.94 169.49 166.96 167.18 169.56 159.98 173.74 144.57 171.59 138.92 164.25 138.92 160.86 144.7 158.82 151.76 155.88 159.85 151.59 167.56 146.05 173.85 145.15 169.49 144.81 143.93 141.31 139.18 134.19 138.79 133.06 140.72 131.25 225.99 132.15 226.76 137.8 228.04 144.02 228.04 144.7 227.28 144.36 225.73 143.68 220.21 143.68 195.68 146.62 190.03 161.42 228.43 168.43 228.43 175.21 228.94 175.55 228.56 173.85 221.37 170.58 213.28"/><polygon class="cls-2" points="44.02 129.73 46.01 128.89 48.08 127.41 48.65 125.4 48.65 123.14 48.24 121.27 47.87 120.23 47.67 119.91 47.57 119.43 45.81 117.97 44.12 116.91 41.92 115.32 42.33 112.03 43.61 113.03 43.82 115.03 44.05 115.26 47.94 114.84 48.08 114.68 47.91 112.83 47.4 110.8 45.91 109.18 43.88 108.6 41.55 108.6 39.96 109.09 38.88 109.54 37.36 111.12 36.79 112.93 36.79 115.23 37.9 117.03 38.92 118.04 41.55 120.23 43.51 122.17 44.63 123.95 44.63 124.31 44.26 125.05 44.02 125.76 43.75 125.92 41.79 126.24 41.15 125.63 40.44 125.14 40.37 124.76 39.49 123.53 37.33 123.75 36.52 125.05 36.45 125.63 36.55 125.79 36.82 127.44 36.82 127.57 37.5 129.12 37.77 129.41 39.49 130.12 41.76 130.22 44.02 129.73"/><polygon class="cls-2" points="56.69 126.86 56.59 126.95 54.77 127.18 52.98 125.73 51.29 125.24 49.56 127.25 50.74 129.12 52.64 130.22 54.77 130.6 56.69 130.6 58.86 129.93 60.41 128.21 60.88 126.18 61.19 124.24 61.46 120.4 61.46 110.41 61.66 108.93 61.49 108.76 59.87 108.22 57.37 108.31 57.17 108.51 57.4 109.64 57.4 115.48 57.27 117.55 56.93 119.46 55.1 119.94 53.48 118.62 53.21 117.07 53.11 112.83 53.35 109.86 53.35 109.02 51.83 108.31 49.63 108.02 49.36 109.99 49.09 117.84 49.26 119.52 49.93 121.4 51.59 122.98 53.48 123.63 55.58 123.75 57.51 123.21 57.51 125.21 56.69 126.86"/><path class="cls-2" d="M63.69,109.7V126l.4,3.91,1,.19.14.1.6.09h2.13l.71-1.26-.33-1.71-.48-5v-2l1.39.29.2.22.58,1.68,2.5,5.43.67,2v.2l.14.32.13.23,1.29-.33H76.8l1.56-.71-1.15-2-.1-.32-4-8.11.61-.3,1.69-1.06,1.25-1.65.17-1.65-.21-1.64L76,110.61,74.74,109l-1.82-.65-1.52-.1H68.79l-1.89.23H64.67Zm3.89,1.94,3,.1,1.62.8.27,1.78L71.77,116l-1.79.42-2,.2-.37-1.07Z"/><polygon class="cls-2" points="80.28 111.22 79.34 111.45 79.34 124.72 79.1 128.73 79.44 130.22 82.85 130.22 82.99 130.06 82.99 129.22 82.82 127.73 82.68 124.21 83.19 111.61 80.28 111.22"/><polygon class="cls-2" points="81.87 107.02 79.67 106.86 79.54 106.99 79.07 108.8 80.08 110.38 82.11 110.7 83.36 109.64 83.7 107.8 83.49 107.63 81.87 107.02"/><path class="cls-2" d="M94.07,129.86l.14.33,1.92.09,1.46-1.06V115.39l-.34-2.59-1-2.1-1.82-1.61-2-.42-1.73.13-1.89.61-1.92,1.42-1,1.71v.17l1,1.39,1.79,1,.27-.32.23-.42.68-.87,1.69-.65.24.07.5.58.61.52.24,2.13v1.74l-.1.1h-.41l-2.6.55-2.81,1-.33.2-1.49,1.45-.68,1.68v2.42l.54,2,1.73,1.87,1.92,1.07,1.66.29h2.06Zm-3.68-3.16-1,.19-.5-1-.24-.26L88.12,124l.11-.45,1.21-1.36,2-.45,2.1-.23v2.2l-.14,1.39-.67,1.55-.24.07Z"/><polygon class="cls-2" points="99.85 109.02 99.85 118.2 99.61 119.49 99.61 127.47 99.85 129.34 101 130.19 102.99 130.35 103.43 130.12 103.64 129.93 103.37 128.76 103.37 115.03 103.77 115.29 107.39 129.96 107.49 130.02 109.08 130.28 109.42 130.38 111 129.99 111.14 129.89 111.38 119.88 111.44 119.75 111.55 116.19 111.68 115.16 111.95 109.6 110.8 108.64 108.81 108.44 108.61 113.06 107.89 118.84 106.14 110.67 105.53 108.83 101.61 108.7 99.85 109.02"/><polygon class="cls-2" points="131.92 129.99 131.65 127.99 131.32 119.91 132.77 119.91 134.22 120.01 134.56 116.26 134.39 116.1 132.23 115.81 131.69 114.77 131.65 114.13 131.69 112.9 133.24 112.29 135.84 112.58 135.98 111.41 135.91 109.54 135.13 107.99 131.69 108.12 130.17 108.44 129.83 108.57 128.34 109.38 128.24 109.54 127.56 111.41 127.39 115.81 125.84 115.68 124.52 116.42 124.12 118.07 124.86 119.59 127.63 119.56 127.46 121.72 127.6 130.67 127.7 130.83 130.61 130.83 131.79 130.12 131.92 129.99"/><polygon class="cls-2" points="142.47 126.15 140.95 126.05 140.2 126.15 137.87 126.21 137.4 127.63 137.4 129.6 137.47 129.7 138.99 129.6 142.91 129.6 145.34 130.02 146.9 129.76 146.9 127.99 146.79 126.28 145.78 126.15 142.47 126.15"/><path class="cls-2" d="M137,112.51l-.68,4-.13.26v2.42l.5,2.39,1.12,1.68,2,1.16,1.76.46,2,.09,2-.58,1.73-1.42,1-1.84.47-1.84.64-3.69v-1.77l-.6-1.88-1.19-1.87-1.72-1-1.93-.52-1.59-.19h-.94l-1.63.45-.57.39-1.42,1.23Zm3.11,3.91.3-2.07.34-1.29,1.42-1.36,2.06.39,1.52,1.39.31,1.84-.24,1.81-.54,1.84-.81,1.78-1.93.42-1.92-.9-.51-1.52Z"/><polygon class="cls-2" points="156.9 126.15 155.38 126.05 154.63 126.15 152.3 126.21 151.83 127.63 151.83 129.6 151.9 129.7 153.42 129.6 157.34 129.6 159.77 130.02 161.33 129.76 161.33 127.99 161.23 126.28 160.21 126.15 156.9 126.15"/><path class="cls-2" d="M162.68,121.14l.47-1.84.65-3.69v-1.77l-.61-1.88L162,110.09l-1.72-1-1.93-.52-1.59-.19h-.94l-1.62.45-.58.39-1.42,1.23-.81,2-.68,4-.13.26v2.42l.51,2.39,1.11,1.68,2,1.16,1.76.46,2,.09,2-.58L161.7,123Zm-2.47-4-.54,1.84-.81,1.78-1.93.42-1.92-.9-.51-1.52v-2.33l.3-2.07.34-1.29,1.42-1.36,2.06.39,1.52,1.39.31,1.84Z"/><path class="cls-2" d="M177.21,114.45l-.67-2.07-1.66-2.19-2.1-1.55-1.65-.65-2.6-.58-1.76-.13h-.91l-.75,1.26-.17.45.27,3.81-.47,17.09,1.62.78,2.27-.1,2.36.1,1.93-.45,2.23-1.1,1.52-2.13.61-2.2.34-3.46v-2.68l-.14-2.16Zm-3.89,5.62-.33,4.11-.78,2.16-2,.52H169v-3l.5-4.26v-8.21h.37l1.12.52,1.59,1.87.64,2.1.13,1.39Z"/></g></g></svg>